<svg xmlns="http://www.w3.org/2000/svg" width="1024" height="1024" viewBox="0 0 1024 1024">
  <defs>
    <linearGradient id="sky" x1="0" y1="0" x2="0" y2="1">
      <stop offset="0" stop-color="#090016"/>
      <stop offset="0.52" stop-color="#4d005b"/>
      <stop offset="1" stop-color="#050016"/>
    </linearGradient>
    <radialGradient id="glow" cx="50%" cy="48%" r="58%">
      <stop offset="0" stop-color="#ff00ca" stop-opacity="0.42"/>
      <stop offset="0.55" stop-color="#8a00ff" stop-opacity="0.14"/>
      <stop offset="1" stop-color="#000" stop-opacity="0"/>
    </radialGradient>
    <linearGradient id="bolt" x1="0" y1="0" x2="1" y2="1">
      <stop offset="0" stop-color="#fff07a"/>
      <stop offset="0.2" stop-color="#ffd52e"/>
      <stop offset="1" stop-color="#ffc21c"/>
    </linearGradient>
    <filter id="pinkGlow" x="-40%" y="-40%" width="180%" height="180%">
      <feGaussianBlur stdDeviation="8" result="blur"/>
      <feMerge><feMergeNode in="blur"/><feMergeNode in="SourceGraphic"/></feMerge>
    </filter>
    <clipPath id="lower"><rect x="0" y="500" width="1024" height="524"/></clipPath>
  </defs>

  <rect width="1024" height="1024" fill="url(#sky)"/>
  <rect width="1024" height="1024" fill="url(#glow)"/>

  <g fill="#ff36e8" opacity="0.82">
    <circle cx="92" cy="89" r="2"/><circle cx="151" cy="151" r="3"/><circle cx="257" cy="93" r="2"/>
    <circle cx="310" cy="181" r="3"/><circle cx="403" cy="67" r="2"/><circle cx="521" cy="112" r="2"/>
    <circle cx="660" cy="83" r="3"/><circle cx="735" cy="168" r="2"/><circle cx="851" cy="90" r="2"/>
    <circle cx="942" cy="174" r="3"/><circle cx="53" cy="275" r="2"/><circle cx="210" cy="256" r="2"/>
    <circle cx="363" cy="290" r="2"/><circle cx="612" cy="248" r="3"/><circle cx="781" cy="291" r="2"/>
    <circle cx="899" cy="248" r="2"/>
  </g>

  <g stroke="#ff00c8" stroke-width="4" opacity="0.72" filter="url(#pinkGlow)">
    <line x1="0" y1="320" x2="1024" y2="320"/>
    <line x1="0" y1="388" x2="1024" y2="388"/>
    <line x1="0" y1="455" x2="1024" y2="455"/>
  </g>

  <g clip-path="url(#lower)" fill="none" stroke="#a900ff" stroke-width="2" opacity="0.82">
    <line x1="512" y1="500" x2="512" y2="1024"/>
    <line x1="410" y1="500" x2="255" y2="1024"/>
    <line x1="614" y1="500" x2="769" y2="1024"/>
    <line x1="305" y1="500" x2="0" y2="1024"/>
    <line x1="719" y1="500" x2="1024" y2="1024"/>
    <line x1="205" y1="500" x2="0" y2="770"/>
    <line x1="819" y1="500" x2="1024" y2="770"/>
    <path d="M0 544H1024 M0 598H1024 M0 666H1024 M0 748H1024 M0 846H1024 M0 958H1024"/>
  </g>
  <g clip-path="url(#lower)" fill="none" stroke="#ff00c8" stroke-width="2" opacity="0.5">
    <path d="M0 570H1024 M0 716H1024 M0 900H1024"/>
  </g>

  <circle cx="512" cy="506" r="334" fill="#11100b"/>
  <circle cx="512" cy="506" r="334" fill="none" stroke="#17150f" stroke-width="10"/>

  <path d="M579 219 L311 506 L457 509 L294 810 L704 441 L558 437 L750 223 Z"
        fill="#ffe46b" opacity="0.95" transform="translate(-12 5)"/>
  <path d="M586 221 L322 503 L472 507 L303 807 L714 444 L567 438 L757 225 Z"
        fill="url(#bolt)" stroke="#ffc629" stroke-width="5" stroke-linejoin="round"/>
</svg>
